Woody, Buzz and the whole gang are back. As their owner Andy prepares to depart for college, his loyal toys find themselves in daycare where untamed tots with their sticky little fingers do not play nice. So, it's all for one and one for all as they join Barbie's counterpart Ken, a thespian hedgehog named Mr. Pricklepants and a pink, strawberry-scented teddy bear called Lots-o'-Huggin' Bear to plan their great escape. 


User Rating:9.5/10
MOVIEmeter: Up 100% in popularity this week 
http://www.imdb.com/title/tt0435761/
Genre:Animation | Adventure | Comedy | Family | Fantasy


Video
Format : xvid
Codec ID : xvid
Duration : 1h 41mn
Bit rate : 810 Kbps
Width : 720 pixels
Height : 320 pixels
Display aspect ratio : 2.25:1
Frame rate : 29.970 fps
Bits/(Pixel*Frame) : 0.117
Stream size : 589 MiB (86%)

Audio
ID : 1
Format : MPEG Audio
Format version : Version 1
Format profile : Layer 3
Codec ID : 55
Codec ID/Hint : MP3
Duration : 1h 34mn
Bit rate mode : Constant
Bit rate : 128 Kbps
Channel(s) : 2 channels
Sampling rate : 48.0 KHz
Stream size : 86.2 MiB (13%)
Alignment : Aligned on interleaves
Interleave, duration : 36 ms (1.08 video frame)
Interleave, preload duration : 504 ms
Writing library : LAMELAME_MAJOR_VERSI



Screenshots
 
http://postimg.com/image/19000/18309.jpg
 
http://postimg.com/image/19000/18310.jpg
 
http://postimg.com/image/19000/18311.jpg